<svg width="266" height="187" viewBox="0 0 266 187" fill="none" xmlns="http://www.w3.org/2000/svg">
<g clip-path="url(#clip0_10_840)">
<path d="M120.524 0L0 45.4319L120.524 23.5398V0Z" fill="#FFE600"/>
<path d="M80.7416 63.5576L70.6195 83.5665L60.2619 63.5576H40.0177L61.4389 100.515V124.526H79.5646V100.515L100.75 63.5576H80.7416Z" fill="black"/>
<path d="M18.1257 100.515H40.0177V87.8036H18.1257V77.6815H42.3717L34.3681 63.5576H0V124.526H48.492V110.637H18.1257V100.515Z" fill="black"/>
</g>
<mask id="mask0_10_840" style="mask-type:luminance" maskUnits="userSpaceOnUse" x="0" y="162" width="168" height="25">
<path d="M167.133 162.54H0V186.079H167.133V162.54Z" fill="white"/>
</mask>
<g mask="url(#mask0_10_840)">
<path d="M136.06 176.428C135.119 176.428 133.942 175.722 133.942 172.662C133.942 169.837 135.119 169.366 136.06 169.366C137.237 169.366 137.708 170.072 138.179 170.543V175.251C137.708 175.957 137.002 176.428 136.06 176.428ZM138.179 167.954C137.473 167.248 136.531 166.777 135.589 166.777C132.765 166.777 130.881 169.131 130.881 172.897C130.881 176.899 132.529 179.253 135.354 179.253C136.296 179.253 137.237 178.782 137.943 178.076V179.017H140.768V162.304L137.943 163.717L138.179 167.954Z" fill="black"/>
<path d="M125.938 163.481L128.763 162.068V168.189V179.017H125.938V163.481Z" fill="black"/>
<path d="M123.819 170.308C123.113 170.072 122.407 169.602 121.701 169.602C120.289 169.602 119.582 170.543 119.582 172.426V179.018H116.758V167.248H119.582V168.189C120.289 167.248 121.23 167.012 122.172 167.012C122.878 167.012 123.819 167.248 124.29 167.718L123.819 170.308Z" fill="black"/>
<path d="M109.696 176.428C108.283 176.428 107.342 175.015 107.342 172.897C107.342 170.778 108.283 169.366 109.696 169.366C111.108 169.366 112.05 170.778 112.05 172.897C112.05 175.015 111.108 176.428 109.696 176.428ZM109.696 166.776C106.635 166.776 104.281 169.366 104.281 172.897C104.281 176.428 106.635 179.017 109.696 179.017C112.756 179.017 115.11 176.428 115.11 172.897C114.874 169.366 112.756 166.776 109.696 166.776Z" fill="black"/>
<path d="M100.75 167.012H103.575L100.28 178.782H97.6903L96.5133 174.074C96.2779 173.133 96.0425 172.191 95.8071 171.485C95.8071 171.956 95.3363 173.368 95.1009 174.074L93.9239 179.018H91.3345L88.039 167.248H91.0991L92.2761 171.72C92.5115 172.426 92.7469 173.839 92.9823 174.545C93.2177 173.603 93.4531 172.426 93.6885 171.485L94.8655 167.012H97.4549L98.6319 171.485C98.8673 172.191 99.1027 173.603 99.3381 174.545C99.5735 173.839 99.8089 172.662 100.044 171.485L100.75 167.012Z" fill="black"/>
<path d="M78.1522 170.543V175.251C77.6814 175.957 77.2106 176.428 76.0337 176.428C75.0921 176.428 73.9151 175.722 73.9151 172.661C73.9151 169.837 75.0921 169.366 76.0337 169.366C77.2106 169.366 77.9168 170.072 78.1522 170.543ZM78.1522 167.953C77.446 167.247 76.5044 166.776 75.5628 166.776C72.7381 166.776 70.8549 169.13 70.8549 172.897C70.8549 176.898 72.5027 179.252 75.3275 179.252C76.269 179.252 77.2106 178.782 77.9168 178.075V178.311C77.9168 179.723 77.9168 181.371 74.1505 181.371H73.9151L74.8567 183.725C78.623 183.725 80.5062 181.842 80.5062 177.84V167.012H77.6814V167.953H78.1522Z" fill="black"/>
<path d="M61.6743 179.018H58.8496V167.248H61.6743V168.189C62.3805 167.483 63.3221 167.012 64.7345 167.012C67.5593 167.012 68.9717 168.895 68.9717 172.426V179.018H66.1469V172.426C66.1469 170.543 65.4407 169.602 64.0283 169.602C62.6159 169.602 61.9098 170.543 61.9098 172.426V179.018H61.6743Z" fill="black"/>
<path d="M56.2602 163.952V165.364H53.4354V162.54H56.2602V163.952Z" fill="black"/>
<path d="M53.2 167.012H56.0248V172.191V179.018H53.2V167.012Z" fill="black"/>
<path d="M47.7859 171.014L51.3168 179.017H48.0213L45.4319 173.603L43.7841 175.486V179.017H40.9593V163.717L43.7841 162.304V171.72C44.2549 171.249 44.4903 170.543 44.9611 170.308L47.3151 167.248H50.6106L47.7859 171.014Z" fill="black"/>
<path d="M39.3115 170.308C38.8407 169.837 38.1345 169.602 37.4283 169.602C36.0159 169.602 35.3097 170.543 35.3097 172.426V179.018H32.485V167.248H35.3097V168.189C36.0159 167.248 36.9575 167.012 37.8991 167.012C38.6053 167.012 39.5469 167.248 40.0177 167.718L39.3115 170.308Z" fill="black"/>
<path d="M25.1876 176.428C23.7752 176.428 22.8337 175.015 22.8337 172.897C22.8337 170.778 23.7752 169.366 25.1876 169.366C26.6 169.366 27.5416 170.778 27.5416 172.897C27.5416 175.015 26.6 176.428 25.1876 176.428ZM25.1876 166.776C22.1275 166.776 19.7735 169.366 19.7735 172.897C19.7735 176.428 22.1275 179.017 25.1876 179.017C28.2478 179.017 30.6018 176.428 30.6018 172.897C30.6018 169.366 28.2478 166.776 25.1876 166.776Z" fill="black"/>
<path d="M16.2425 167.012H19.0673L15.7717 178.782H13.1823L11.7699 173.838C11.5345 172.897 11.2991 171.955 11.0637 171.249C11.0637 171.72 10.5929 173.132 10.3575 173.838L9.41595 178.782H7.06197L3.76639 167.012H6.82657L8.00356 171.484C8.23896 172.191 8.47436 173.603 8.70976 174.309C8.94515 173.368 9.18055 172.191 9.41595 171.249L10.5929 166.776H13.1823L14.3593 171.249C14.5947 171.955 14.8301 173.368 15.0655 174.309C15.3009 173.603 15.5363 172.426 15.7717 171.249L16.2425 167.012Z" fill="black"/>
</g>
<mask id="mask1_10_840" style="mask-type:luminance" maskUnits="userSpaceOnUse" x="0" y="139" width="168" height="24">
<path d="M167.133 139H0V162.54H167.133V139Z" fill="white"/>
</mask>
<g mask="url(#mask1_10_840)">
<path d="M166.427 149.593C165.956 149.122 165.25 148.887 164.543 148.887C163.131 148.887 162.425 149.828 162.425 151.712V158.067H159.6V146.297H162.425V147.239C163.131 146.297 164.073 146.062 165.014 146.062C165.72 146.062 166.662 146.297 167.133 146.768L166.427 149.593Z" fill="black"/>
<path d="M150.419 151.005C150.419 149.593 151.361 148.651 152.538 148.651C154.186 148.651 154.657 149.828 154.657 151.005H150.419ZM155.127 154.772C154.657 155.243 153.95 155.713 152.773 155.713C152.303 155.713 150.419 155.478 150.184 153.124H157.481C157.481 152.889 157.481 152.418 157.481 152.182C157.481 148.416 155.598 146.062 152.538 146.062C149.478 146.062 147.359 148.651 147.359 152.182C147.359 155.949 149.478 158.303 153.009 158.303C154.657 158.303 156.069 157.597 157.246 156.42L155.127 154.772Z" fill="black"/>
<path d="M143.358 154.066C143.358 155.007 143.828 155.714 144.535 155.714C145.241 155.714 145.712 155.478 146.182 155.243L145.947 157.832C145.241 158.303 144.535 158.303 143.593 158.303C141.239 158.303 140.533 156.42 140.533 154.772V149.123H138.65V146.298H140.533V143.238L143.358 141.825V146.298H145.947V149.123H143.358V154.066Z" fill="black"/>
<path d="M137.708 157.832C137.002 158.303 136.296 158.303 135.354 158.303C133 158.303 132.294 156.42 132.294 154.772V149.123H130.411V146.298H132.294V143.238L135.119 141.825V146.298H137.708V149.123H135.119V154.066C135.119 155.007 135.589 155.714 136.296 155.714C137.002 155.714 137.473 155.478 137.943 155.243L137.708 157.832Z" fill="black"/>
<path d="M122.172 151.005C122.172 149.593 123.113 148.651 124.29 148.651C125.938 148.651 126.409 149.828 126.409 151.005H122.172ZM127.115 154.772C126.644 155.243 125.938 155.713 124.761 155.713C124.29 155.713 122.172 155.478 122.172 153.124H129.469C129.469 152.889 129.469 152.418 129.469 152.182C129.469 148.416 127.586 146.062 124.526 146.062C121.465 146.062 119.347 148.651 119.347 152.182C119.347 155.949 121.465 158.303 124.996 158.303C126.644 158.303 128.057 157.597 129.234 156.42L127.115 154.772Z" fill="black"/>
<path d="M112.756 148.652C113.933 148.652 114.874 149.593 114.874 151.947C114.874 154.301 114.168 155.714 112.756 155.714C111.579 155.714 110.873 155.007 110.637 154.537V149.829C111.108 149.123 111.814 148.652 112.756 148.652ZM113.227 146.062C112.285 146.062 111.343 146.533 110.637 147.239V141.825L107.812 143.238V158.303H110.637V157.361C111.343 158.068 112.285 158.538 113.227 158.538C116.051 158.538 117.699 156.184 117.699 152.183C117.935 148.416 116.051 146.062 113.227 146.062Z" fill="black"/>
<path d="M92.9823 154.301C92.9823 153.359 93.6885 152.653 95.1009 152.653C96.0425 152.653 96.7487 152.889 97.4549 153.124V154.772C96.9841 155.478 96.2779 155.949 95.1009 155.949C93.6885 155.949 92.9823 155.242 92.9823 154.301ZM92.0407 149.122C92.9823 148.651 93.9239 148.416 95.1009 148.416C96.5133 148.416 97.2195 148.887 97.2195 150.064V150.77C96.5133 150.535 95.5717 150.299 94.6301 150.299C92.5115 150.299 89.9221 151.241 89.9221 154.301C89.9221 157.361 92.2761 158.538 94.3947 158.538C95.3363 158.538 96.5133 158.303 97.2195 157.361V158.303H100.044V150.299C100.044 147.71 98.1611 146.297 95.3363 146.297C93.6885 146.297 92.2761 146.768 90.8637 147.474L92.0407 149.122Z" fill="black"/>
<path d="M80.0354 149.828V154.536C79.5646 155.243 79.0938 155.713 77.9168 155.713C76.9752 155.713 75.7982 155.007 75.7982 151.947C75.7982 149.122 76.9752 148.651 77.9168 148.651C79.0938 148.651 79.8 149.358 80.0354 149.828ZM80.0354 147.239C79.3292 146.533 78.3876 146.062 77.446 146.062C74.6212 146.062 72.7381 148.416 72.7381 152.182C72.7381 156.184 74.3859 158.538 77.2106 158.538C78.1522 158.538 79.0938 158.067 79.8 157.361V157.597C79.8 159.009 79.8 160.657 76.0336 160.657H75.7982L76.7398 163.011C80.5062 163.011 82.3894 160.892 82.3894 157.126V146.297H80.0354V147.239Z" fill="black"/>
<path d="M63.7929 158.067H60.9681V146.297H63.7929V147.239C64.4991 146.533 65.4407 146.062 66.8531 146.062C69.6779 146.062 71.0903 147.945 71.0903 151.476V158.067H68.2655V151.476C68.2655 149.593 67.5593 148.651 66.1469 148.651C64.7345 148.651 64.0283 149.593 64.0283 151.476L63.7929 158.067Z" fill="black"/>
<path d="M58.1434 143.238V144.65H55.3186V141.825H58.1434V143.238Z" fill="black"/>
<path d="M55.3186 146.297H58.1434V150.064V158.067H55.3186V146.297Z" fill="black"/>
<path d="M47.7858 155.713C46.8442 155.713 45.6673 155.007 45.6673 151.947C45.6673 149.122 46.8442 148.651 47.7858 148.651C48.9628 148.651 49.4336 149.358 49.9044 149.828V154.536C49.1982 155.242 48.7274 155.713 47.7858 155.713ZM49.669 147.239C48.9628 146.533 48.0212 146.062 47.0796 146.062C44.2549 146.062 42.3717 148.416 42.3717 152.182C42.3717 156.184 44.0195 158.538 46.8443 158.538C47.7858 158.538 48.7274 158.067 49.4336 157.361V158.303H52.2584V141.354L49.4336 142.766L49.669 147.239Z" fill="black"/>
<path d="M37.6637 142.766L40.4885 141.354V150.299V158.303H37.6637V142.766Z" fill="black"/>
<path d="M35.0743 143.238V144.65H32.2495V141.825H35.0743V143.238Z" fill="black"/>
<path d="M35.0743 150.535V158.303H32.2495V146.533H35.0743V150.535Z" fill="black"/>
<path d="M19.3027 153.124V146.533H22.1274V153.124C22.1274 155.008 22.8336 155.949 24.246 155.949C25.6584 155.949 26.3646 155.008 26.3646 153.124V146.533H29.1894V158.303H26.3646V157.362C25.6584 158.068 24.7168 158.539 23.5398 158.539C19.7734 158.539 19.3027 155.008 19.3027 153.124Z" fill="black"/>
<path d="M11.5345 148.181H7.76814V144.65H11.2991C12.7115 144.65 13.4177 145.121 13.4177 146.298C13.6531 147.239 13.1823 148.181 11.5345 148.181ZM11.5345 155.478H7.76814V150.77H11.5345C13.1823 150.77 13.8885 151.477 13.8885 153.124C14.1239 154.537 13.1823 155.478 11.5345 155.478ZM17.1841 152.889C17.1841 150.535 15.5363 149.593 14.8301 149.358C16.0071 148.652 16.7133 147.475 16.7133 146.062C16.7133 143.473 14.8301 141.825 11.7699 141.825H4.70796V158.068H11.5345C15.0655 158.068 17.1841 156.184 17.1841 152.889Z" fill="black"/>
</g>
<defs>
<clipPath id="clip0_10_840">
<rect width="266" height="129.469" fill="white"/>
</clipPath>
</defs>
</svg>
