<svg width="113" height="55" viewBox="0 0 113 55" fill="none" xmlns="http://www.w3.org/2000/svg">
<g clip-path="url(#clip0_74_3)">
<path d="M51.2 0L0 19.3L51.2 10V0Z" fill="#FFE600"/>
<path d="M34.3 27L30 35.5L25.6 27H17L26.1 42.7V52.9H33.8V42.7L42.8 27H34.3Z" fill="white"/>
<path d="M7.7 42.7H17V37.3H7.7V33H18L14.6 27H0V52.9H20.6V47H7.7V42.7Z" fill="white"/>
<mask id="mask0_74_3" style="mask-type:luminance" maskUnits="userSpaceOnUse" x="42" y="46" width="71" height="10">
<path d="M113 46H42V56H113V46Z" fill="white"/>
</mask>
<g mask="url(#mask0_74_3)">
<path d="M99.8 51.9C99.4 51.9 98.9 51.6 98.9 50.3C98.9 49.1 99.4 48.9 99.8 48.9C100.3 48.9 100.5 49.2 100.7 49.4V51.4C100.5 51.7 100.2 51.9 99.8 51.9ZM100.7 48.3C100.4 48 100 47.8 99.6 47.8C98.4 47.8 97.6 48.8 97.6 50.4C97.6 52.1 98.3 53.1 99.5 53.1C99.9 53.1 100.3 52.9 100.6 52.6V53H101.8V45.9L100.6 46.5L100.7 48.3Z" fill="white"/>
<path d="M95.5 46.4L96.7 45.8V48.4V53H95.5V46.4Z" fill="white"/>
<path d="M94.6 49.3C94.3 49.2 94 49 93.7 49C93.1 49 92.8 49.4 92.8 50.2V53H91.6V48H92.8V48.4C93.1 48 93.5 47.9 93.9 47.9C94.2 47.9 94.6 48 94.8 48.2L94.6 49.3Z" fill="white"/>
<path d="M88.6 51.9C88 51.9 87.6 51.3 87.6 50.4C87.6 49.5 88 48.9 88.6 48.9C89.2 48.9 89.6 49.5 89.6 50.4C89.6 51.3 89.2 51.9 88.6 51.9ZM88.6 47.8C87.3 47.8 86.3 48.9 86.3 50.4C86.3 51.9 87.3 53 88.6 53C89.9 53 90.9 51.9 90.9 50.4C90.8 48.9 89.9 47.8 88.6 47.8Z" fill="white"/>
<path d="M84.8 47.9H86L84.6 52.9H83.5L83 50.9C82.9 50.5 82.8 50.1 82.7 49.8C82.7 50 82.5 50.6 82.4 50.9L81.9 53H80.8L79.4 48H80.7L81.2 49.9C81.3 50.2 81.4 50.8 81.5 51.1C81.6 50.7 81.7 50.2 81.8 49.8L82.3 47.9H83.4L83.9 49.8C84 50.1 84.1 50.7 84.2 51.1C84.3 50.8 84.4 50.3 84.5 49.8L84.8 47.9Z" fill="white"/>
<path d="M75.2 49.4V51.4C75 51.7 74.8 51.9 74.3 51.9C73.9 51.9 73.4 51.6 73.4 50.3C73.4 49.1 73.9 48.9 74.3 48.9C74.8 48.9 75.1 49.2 75.2 49.4ZM75.2 48.3C74.9 48 74.5 47.8 74.1 47.8C72.9 47.8 72.1 48.8 72.1 50.4C72.1 52.1 72.8 53.1 74 53.1C74.4 53.1 74.8 52.9 75.1 52.6V52.7C75.1 53.3 75.1 54 73.5 54H73.4L73.8 55C75.4 55 76.2 54.2 76.2 52.5V47.9H75V48.3H75.2Z" fill="white"/>
<path d="M68.2 53H67V48H68.2V48.4C68.5 48.1 68.9 47.9 69.5 47.9C70.7 47.9 71.3 48.7 71.3 50.2V53H70.1V50.2C70.1 49.4 69.8 49 69.2 49C68.6 49 68.3 49.4 68.3 50.2V53H68.2Z" fill="white"/>
<path d="M65.9 46.6V47.2H64.7V46H65.9V46.6Z" fill="white"/>
<path d="M64.6 47.9H65.8V50.1V53H64.6V47.9Z" fill="white"/>
<path d="M62.3 49.6L63.8 53H62.4L61.3 50.7L60.6 51.5V53H59.4V46.5L60.6 45.9V49.9C60.8 49.7 60.9 49.4 61.1 49.3L62.1 48H63.5L62.3 49.6Z" fill="white"/>
<path d="M58.7 49.3C58.5 49.1 58.2 49 57.9 49C57.3 49 57 49.4 57 50.2V53H55.8V48H57V48.4C57.3 48 57.7 47.9 58.1 47.9C58.4 47.9 58.8 48 59 48.2L58.7 49.3Z" fill="white"/>
<path d="M52.7 51.9C52.1 51.9 51.7 51.3 51.7 50.4C51.7 49.5 52.1 48.9 52.7 48.9C53.3 48.9 53.7 49.5 53.7 50.4C53.7 51.3 53.3 51.9 52.7 51.9ZM52.7 47.8C51.4 47.8 50.4 48.9 50.4 50.4C50.4 51.9 51.4 53 52.7 53C54 53 55 51.9 55 50.4C55 48.9 54 47.8 52.7 47.8Z" fill="white"/>
<path d="M48.9 47.9H50.1L48.7 52.9H47.6L47 50.8C46.9 50.4 46.8 50 46.7 49.7C46.7 49.9 46.5 50.5 46.4 50.8L46 52.9H45L43.6 47.9H44.9L45.4 49.8C45.5 50.1 45.6 50.7 45.7 51C45.8 50.6 45.9 50.1 46 49.7L46.5 47.8H47.6L48.1 49.7C48.2 50 48.3 50.6 48.4 51C48.5 50.7 48.6 50.2 48.7 49.7L48.9 47.9Z" fill="white"/>
</g>
<mask id="mask1_74_3" style="mask-type:luminance" maskUnits="userSpaceOnUse" x="42" y="36" width="71" height="10">
<path d="M113 36H42V46H113V36Z" fill="white"/>
</mask>
<g mask="url(#mask1_74_3)">
<path d="M112.7 40.5C112.5 40.3 112.2 40.2 111.9 40.2C111.3 40.2 111 40.6 111 41.4V44.1H109.8V39.1H111V39.5C111.3 39.1 111.7 39 112.1 39C112.4 39 112.8 39.1 113 39.3L112.7 40.5Z" fill="white"/>
<path d="M105.9 41.1C105.9 40.5 106.3 40.1 106.8 40.1C107.5 40.1 107.7 40.6 107.7 41.1H105.9ZM107.9 42.7C107.7 42.9 107.4 43.1 106.9 43.1C106.7 43.1 105.9 43 105.8 42H108.9C108.9 41.9 108.9 41.7 108.9 41.6C108.9 40 108.1 39 106.8 39C105.5 39 104.6 40.1 104.6 41.6C104.6 43.2 105.5 44.2 107 44.2C107.7 44.2 108.3 43.9 108.8 43.4L107.9 42.7Z" fill="white"/>
<path d="M102.9 42.4C102.9 42.8 103.1 43.1 103.4 43.1C103.7 43.1 103.9 43 104.1 42.9L104 44C103.7 44.2 103.4 44.2 103 44.2C102 44.2 101.7 43.4 101.7 42.7V40.3H100.9V39.1H101.7V37.8L102.9 37.2V39.1H104V40.3H102.9V42.4Z" fill="white"/>
<path d="M100.5 44C100.2 44.2 99.9 44.2 99.5 44.2C98.5 44.2 98.2 43.4 98.2 42.7V40.3H97.4V39.1H98.2V37.8L99.4 37.2V39.1H100.5V40.3H99.4V42.4C99.4 42.8 99.6 43.1 99.9 43.1C100.2 43.1 100.4 43 100.6 42.9L100.5 44Z" fill="white"/>
<path d="M93.9 41.1C93.9 40.5 94.3 40.1 94.8 40.1C95.5 40.1 95.7 40.6 95.7 41.1H93.9ZM96 42.7C95.8 42.9 95.5 43.1 95 43.1C94.8 43.1 93.9 43 93.9 42H97C97 41.9 97 41.7 97 41.6C97 40 96.2 39 94.9 39C93.6 39 92.7 40.1 92.7 41.6C92.7 43.2 93.6 44.2 95.1 44.2C95.8 44.2 96.4 43.9 96.9 43.4L96 42.7Z" fill="white"/>
<path d="M89.9 40.1C90.4 40.1 90.8 40.5 90.8 41.5C90.8 42.5 90.5 43.1 89.9 43.1C89.4 43.1 89.1 42.8 89 42.6V40.6C89.2 40.3 89.5 40.1 89.9 40.1ZM90.1 39C89.7 39 89.3 39.2 89 39.5V37.2L87.8 37.8V44.2H89V43.8C89.3 44.1 89.7 44.3 90.1 44.3C91.3 44.3 92 43.3 92 41.6C92.1 40 91.3 39 90.1 39Z" fill="white"/>
<path d="M81.5 42.5C81.5 42.1 81.8 41.8 82.4 41.8C82.8 41.8 83.1 41.9 83.4 42V42.7C83.2 43 82.9 43.2 82.4 43.2C81.8 43.2 81.5 42.9 81.5 42.5ZM81.1 40.3C81.5 40.1 81.9 40 82.4 40C83 40 83.3 40.2 83.3 40.7V41C83 40.9 82.6 40.8 82.2 40.8C81.3 40.8 80.2 41.2 80.2 42.5C80.2 43.8 81.2 44.3 82.1 44.3C82.5 44.3 83 44.2 83.3 43.8V44.2H84.5V40.8C84.5 39.7 83.7 39.1 82.5 39.1C81.8 39.1 81.2 39.3 80.6 39.6L81.1 40.3Z" fill="white"/>
<path d="M76 40.6V42.6C75.8 42.9 75.6 43.1 75.1 43.1C74.7 43.1 74.2 42.8 74.2 41.5C74.2 40.3 74.7 40.1 75.1 40.1C75.6 40.1 75.9 40.4 76 40.6ZM76 39.5C75.7 39.2 75.3 39 74.9 39C73.7 39 72.9 40 72.9 41.6C72.9 43.3 73.6 44.3 74.8 44.3C75.2 44.3 75.6 44.1 75.9 43.8V43.9C75.9 44.5 75.9 45.2 74.3 45.2H74.2L74.6 46.2C76.2 46.2 77 45.3 77 43.7V39.1H76V39.5Z" fill="white"/>
<path d="M69.1 44.1H67.9V39.1H69.1V39.5C69.4 39.2 69.8 39 70.4 39C71.6 39 72.2 39.8 72.2 41.3V44.1H71V41.3C71 40.5 70.7 40.1 70.1 40.1C69.5 40.1 69.2 40.5 69.2 41.3L69.1 44.1Z" fill="white"/>
<path d="M66.7 37.8V38.4H65.5V37.2H66.7V37.8Z" fill="white"/>
<path d="M65.5 39.1H66.7V40.7V44.1H65.5V39.1Z" fill="white"/>
<path d="M62.3 43.1C61.9 43.1 61.4 42.8 61.4 41.5C61.4 40.3 61.9 40.1 62.3 40.1C62.8 40.1 63 40.4 63.2 40.6V42.6C62.9 42.9 62.7 43.1 62.3 43.1ZM63.1 39.5C62.8 39.2 62.4 39 62 39C60.8 39 60 40 60 41.6C60 43.3 60.7 44.3 61.9 44.3C62.3 44.3 62.7 44.1 63 43.8V44.2H64.2V37L63 37.6L63.1 39.5Z" fill="white"/>
<path d="M58 37.6L59.2 37V40.8V44.2H58V37.6Z" fill="white"/>
<path d="M56.9 37.8V38.4H55.7V37.2H56.9V37.8Z" fill="white"/>
<path d="M56.9 40.9V44.2H55.7V39.2H56.9V40.9Z" fill="white"/>
<path d="M50.2 42V39.2H51.4V42C51.4 42.8 51.7 43.2 52.3 43.2C52.9 43.2 53.2 42.8 53.2 42V39.2H54.4V44.2H53.2V43.8C52.9 44.1 52.5 44.3 52 44.3C50.4 44.3 50.2 42.8 50.2 42Z" fill="white"/>
<path d="M46.9 39.9H45.3V38.4H46.8C47.4 38.4 47.7 38.6 47.7 39.1C47.8 39.5 47.6 39.9 46.9 39.9ZM46.9 43H45.3V41H46.9C47.6 41 47.9 41.3 47.9 42C48 42.6 47.6 43 46.9 43ZM49.3 41.9C49.3 40.9 48.6 40.5 48.3 40.4C48.8 40.1 49.1 39.6 49.1 39C49.1 37.9 48.3 37.2 47 37.2H44V44.1H46.9C48.4 44.1 49.3 43.3 49.3 41.9Z" fill="white"/>
</g>
</g>
<defs>
<clipPath id="clip0_74_3">
<rect width="113" height="55" fill="white"/>
</clipPath>
</defs>
</svg>
