<svg width="20" height="20" viewBox="0 0 20 20" fill="none" xmlns="http://www.w3.org/2000/svg">
<path d="M13.3563 2.28845C10.3053 -0.762574 5.33953 -0.762574 2.28851 2.28845C-0.761859 5.34014 -0.761859 10.3053 2.28851 13.3569C5.00553 16.0733 9.23715 16.3643 12.2862 14.2432C12.3503 14.5468 12.4972 14.8365 12.7333 15.0726L17.1766 19.5159C17.8241 20.1621 18.8704 20.1621 19.5146 19.5159C20.1615 18.869 20.1615 17.8227 19.5146 17.1778L15.0713 12.7332C14.8365 12.4991 14.5462 12.3516 14.2426 12.2875C16.365 9.23776 16.074 5.0068 13.3563 2.28845ZM11.9535 11.9541C9.67566 14.232 5.96852 14.232 3.69133 11.9541C1.4148 9.67626 1.4148 5.96979 3.69133 3.69194C5.96852 1.41475 9.67566 1.41475 11.9535 3.69194C14.2314 5.96979 14.2314 9.67626 11.9535 11.9541Z" fill="white"/>
</svg>
