<svg width="24" height="24" viewBox="0 0 24 24" fill="none" xmlns="http://www.w3.org/2000/svg">
<g clip-path="url(#clip0_144_97)">
<path d="M11.655 0C5.21911 0 0 5.21911 0 11.655C0 18.0909 5.21911 23.31 11.655 23.31C18.0909 23.31 23.31 18.0909 23.31 11.655C23.31 5.21911 18.0909 0 11.655 0ZM18.6351 15.4181C18.5511 15.6137 18.1738 15.8917 16.8538 16.0955C16.7457 16.1121 16.7039 16.2527 16.6395 16.5474C16.6161 16.6546 16.5924 16.7601 16.5599 16.8709C16.5318 16.9669 16.4718 17.0119 16.371 17.0119H16.3546C16.2846 17.0119 16.1853 16.9993 16.0592 16.9746C15.8357 16.931 15.5851 16.8908 15.2662 16.8908C15.08 16.8908 14.8874 16.9068 14.6938 16.9388C14.2977 17.005 13.9614 17.2422 13.6054 17.4941C13.088 17.8601 12.554 18.2376 11.7215 18.2376C11.6852 18.2376 11.6498 18.2364 11.6141 18.2348C11.5913 18.2367 11.5677 18.2376 11.544 18.2376C10.7119 18.2376 10.1779 17.8602 9.6614 17.4948C9.30483 17.2429 8.96817 17.005 8.57159 16.9388C8.3781 16.9068 8.1855 16.8908 7.99965 16.8908C7.66407 16.8908 7.39979 16.9426 7.20648 16.9803C7.08928 17.0032 6.98791 17.023 6.91091 17.023C6.83052 17.023 6.74356 17.0055 6.70568 16.8762C6.67278 16.764 6.64913 16.6557 6.62601 16.5504C6.56696 16.2805 6.52517 16.1144 6.41206 16.0969C5.0923 15.8931 4.71439 15.615 4.63027 15.4178C4.61854 15.3897 4.61142 15.3612 4.61 15.3335C4.60573 15.2575 4.65926 15.1905 4.73431 15.1784C6.76294 14.8444 7.67278 12.7706 7.71066 12.6826C7.71155 12.6804 7.71262 12.6779 7.71386 12.6756C7.83799 12.424 7.86218 12.2054 7.78642 12.0263C7.64717 11.6984 7.19296 11.5542 6.89241 11.4588C6.81896 11.4354 6.74925 11.4135 6.69412 11.3916C6.09426 11.1546 6.04447 10.9113 6.06812 10.7873C6.10831 10.5759 6.39072 10.4284 6.61925 10.4284C6.68167 10.4284 6.7368 10.4396 6.78322 10.4613C7.05318 10.5876 7.29629 10.6518 7.50632 10.6518C7.7962 10.6518 7.92282 10.53 7.9383 10.514C7.93065 10.3767 7.92158 10.2332 7.91233 10.085C7.85187 9.1261 7.77682 7.93403 8.08057 7.25379C8.99005 5.21466 10.9186 5.05603 11.4882 5.05603C11.5028 5.05603 11.7379 5.05353 11.7379 5.05353H11.7715C12.3422 5.05353 14.2753 5.21217 15.1851 7.25254C15.4887 7.93314 15.4137 9.1261 15.3532 10.0845L15.3505 10.1263C15.3422 10.2597 15.334 10.3893 15.3272 10.5136C15.3418 10.5286 15.4583 10.6404 15.721 10.6506H15.7212C15.9212 10.6429 16.1506 10.5791 16.4026 10.4613C16.4763 10.4267 16.5584 10.4194 16.6141 10.4194C16.6996 10.4194 16.7859 10.4361 16.8576 10.4658L16.8622 10.4677C17.0658 10.5399 17.1994 10.6826 17.2022 10.832C17.2049 10.9724 17.0975 11.1837 16.5714 11.3916C16.5168 11.4131 16.4471 11.4352 16.3731 11.4587C16.0722 11.554 15.6184 11.6984 15.4791 12.0262C15.4032 12.2054 15.4274 12.4236 15.5517 12.6753C15.5527 12.6778 15.554 12.6801 15.5551 12.6826C15.5928 12.7706 16.5015 14.8437 18.5314 15.1782C18.6063 15.1905 18.66 15.2575 18.6557 15.3331C18.6541 15.3616 18.6472 15.3902 18.6351 15.4181Z" fill="black"/>
</g>
<defs>
<clipPath id="clip0_144_97">
<rect width="23.31" height="23.31" fill="white"/>
</clipPath>
</defs>
</svg>
