<svg width="24" height="21" viewBox="0 0 24 21" fill="none" xmlns="http://www.w3.org/2000/svg">
<path d="M21.1157 5.10025C21.1306 5.32408 21.1306 5.54795 21.1306 5.77178C21.1306 12.5988 16.2773 20.465 7.40692 20.465C4.67411 20.465 2.13547 19.6176 0 18.1468C0.38828 18.1947 0.761574 18.2107 1.16479 18.2107C3.41968 18.2107 5.49544 17.3953 7.15304 16.0043C5.03251 15.9563 3.25545 14.4694 2.64317 12.4229C2.94186 12.4708 3.24051 12.5028 3.55414 12.5028C3.98719 12.5028 4.42028 12.4389 4.82346 12.327C2.61334 11.8473 0.955691 9.76885 0.955691 7.25868V7.19475C1.5978 7.57848 2.34453 7.8183 3.13593 7.85024C1.83673 6.9229 0.985569 5.34007 0.985569 3.54937C0.985569 2.59009 1.22446 1.71073 1.64262 0.943286C4.01702 4.07699 7.58609 6.12346 11.5882 6.34734C11.5135 5.96362 11.4687 5.56395 11.4687 5.16423C11.4687 2.31828 13.6191 0 16.2922 0C17.681 0 18.9353 0.623543 19.8164 1.63081C20.9065 1.40698 21.9518 0.975276 22.8778 0.383722C22.5193 1.58287 21.7577 2.59014 20.7572 3.22963C21.7279 3.11776 22.6687 2.82991 23.5348 2.43024C22.8778 3.45345 22.0565 4.36475 21.1157 5.10025Z" fill="black"/>
</svg>
