<svg width="24" height="33" viewBox="0 0 24 33" fill="none" xmlns="http://www.w3.org/2000/svg">
<path d="M19.5039 4.42082C18.4947 4.42082 17.5635 4.08649 16.8158 3.52249C15.9582 2.87595 15.3421 1.92755 15.1245 0.83443C15.0706 0.564345 15.0416 0.285626 15.0388 0H12.156V7.87735L12.1525 12.1921C12.1525 13.3457 11.4013 14.3238 10.36 14.6678C10.0578 14.7676 9.73143 14.8149 9.39158 14.7963C8.95779 14.7724 8.55128 14.6415 8.19796 14.4302C7.44607 13.9805 6.9363 13.1647 6.92248 12.2315C6.90072 10.773 8.07984 9.58385 9.53733 9.58385C9.82503 9.58385 10.1013 9.63082 10.36 9.71613V7.56305V6.78907C10.0872 6.74866 9.80949 6.72759 9.52869 6.72759C7.9334 6.72759 6.44137 7.39071 5.37485 8.58537C4.56874 9.48818 4.08521 10.64 4.01061 11.8478C3.91287 13.4345 4.49345 14.9427 5.61938 16.0555C5.78481 16.2189 5.95854 16.3705 6.1402 16.5104C7.10553 17.2533 8.28568 17.656 9.52869 17.656C9.80949 17.656 10.0872 17.6353 10.36 17.5949C11.5212 17.4229 12.5925 16.8913 13.438 16.0555C14.4769 15.0287 15.0509 13.6655 15.0571 12.2146L15.0423 5.77124C15.5379 6.15357 16.0798 6.46994 16.6614 6.7155C17.566 7.09714 18.5251 7.29055 19.5121 7.29021V5.19688V4.42013C19.5128 4.42082 19.5045 4.42082 19.5039 4.42082Z" fill="black"/>
<path d="M4.68 27.312L11.484 26.208L11.724 27.54L4.932 28.668L4.68 27.312ZM8.688 19.8H10.116V31.068H8.688V19.8ZM5.508 21.444L6.276 20.46C6.996 20.856 7.956 21.468 8.412 21.936L7.596 23.028C7.164 22.56 6.24 21.876 5.508 21.444ZM4.932 24.468L5.676 23.448C6.432 23.808 7.44 24.396 7.944 24.828L7.152 25.968C6.684 25.524 5.688 24.888 4.932 24.468ZM0.312 25.908C1.428 25.68 3.072 25.272 4.62 24.876L4.788 26.208C3.396 26.592 1.872 26.988 0.684 27.288L0.312 25.908ZM0.468 22.104H4.728V23.448H0.468V22.104ZM1.932 19.812H3.348V29.472C3.348 30.156 3.216 30.516 2.808 30.732C2.4 30.948 1.824 30.984 0.972 30.984C0.936 30.624 0.756 30.036 0.576 29.676C1.056 29.7 1.548 29.688 1.704 29.688C1.872 29.688 1.932 29.628 1.932 29.46V19.812ZM13.272 20.784H22.848V22.056H13.272V20.784ZM12.6 23.532H23.4V24.816H12.6V23.532ZM15.024 27.552H21.012V28.632H15.024V27.552ZM15.024 29.496H21.012V30.684H15.024V29.496ZM17.208 19.812H18.72V21.54H17.208V19.812ZM14.304 25.536H21.912V31.068H20.388V26.724H15.744V31.08H14.304V25.536ZM19.848 21.816L21.456 22.164C21.156 22.776 20.868 23.376 20.64 23.784L19.26 23.46C19.476 22.992 19.728 22.308 19.848 21.816ZM14.796 22.152L16.212 21.876C16.524 22.356 16.776 23.016 16.86 23.448L15.36 23.796C15.3 23.34 15.06 22.644 14.796 22.152Z" fill="black"/>
</svg>
