<svg width="24" height="17" viewBox="0 0 24 17" fill="none" xmlns="http://www.w3.org/2000/svg">
<path d="M22.8297 2.5538C22.5611 1.55519 21.7738 0.767991 20.7753 0.499094C18.9512 0 11.6547 0 11.6547 0C11.6547 0 4.35854 0 2.53446 0.480172C1.55519 0.748784 0.748642 1.55533 0.48003 2.5538C0 4.37775 0 8.16036 0 8.16036C0 8.16036 0 11.962 0.48003 13.7669C0.748926 14.7654 1.53598 15.5526 2.5346 15.8215C4.37775 16.3207 11.655 16.3207 11.655 16.3207C11.655 16.3207 18.9512 16.3207 20.7753 15.8406C21.7739 15.5718 22.5611 14.7846 22.83 13.7861C23.3099 11.962 23.3099 8.17957 23.3099 8.17957C23.3099 8.17957 23.3291 4.37775 22.8297 2.5538ZM9.3317 11.6549V4.66585L15.3991 8.16036L9.3317 11.6549Z" fill="black"/>
</svg>
