<svg width="24" height="24" viewBox="0 0 24 24" fill="none" xmlns="http://www.w3.org/2000/svg">
<path d="M5.42597 7.47363H0.746451C0.538767 7.47363 0.370483 7.64199 0.370483 7.8496V22.8829C0.370483 23.0906 0.538767 23.2589 0.746451 23.2589H5.42597C5.63366 23.2589 5.80194 23.0906 5.80194 22.8829V7.8496C5.80194 7.64199 5.63366 7.47363 5.42597 7.47363Z" fill="black"/>
<path d="M3.0879 0C1.38522 0 0 1.38371 0 3.08451C0 4.78607 1.38522 6.17031 3.0879 6.17031C4.78923 6.17031 6.17331 4.78599 6.17331 3.08451C6.17339 1.38371 4.78923 0 3.0879 0Z" fill="black"/>
<path d="M17.3287 7.09961C15.4492 7.09961 14.0599 7.90756 13.2172 8.8256V7.84921C13.2172 7.6416 13.0489 7.47325 12.8412 7.47325H8.35973C8.15205 7.47325 7.98376 7.6416 7.98376 7.84921V22.8825C7.98376 23.0902 8.15205 23.2585 8.35973 23.2585H13.029C13.2367 23.2585 13.405 23.0902 13.405 22.8825V15.4445C13.405 12.9381 14.0858 11.9616 15.833 11.9616C17.7358 11.9616 17.8871 13.527 17.8871 15.5735V22.8826C17.8871 23.0903 18.0553 23.2586 18.263 23.2586H22.934C23.1417 23.2586 23.31 23.0903 23.31 22.8826V14.6366C23.31 10.9096 22.5994 7.09961 17.3287 7.09961Z" fill="black"/>
</svg>
