<svg width="26" height="26" viewBox="0 0 26 26" fill="none" xmlns="http://www.w3.org/2000/svg">
<path d="M17.5585 7.3623C16.2294 7.63983 14.8054 7.80411 13.338 7.84317V11.8959H18.1414C18.0971 10.2996 17.898 8.76494 17.5585 7.3623Z" fill="black"/>
<path d="M5.80209 11.8961C5.84713 10.1924 6.06031 8.54814 6.42566 7.03897C5.2292 6.70312 4.13451 6.26892 3.18515 5.74707C1.88488 7.54133 1.12817 9.65923 1 11.8961H5.80209Z" fill="black"/>
<path d="M5.80209 13.2622H1C1.12817 15.4991 1.88488 17.617 3.18511 19.4112C4.13446 18.8894 5.2292 18.4552 6.42566 18.1194C6.06031 16.6102 5.84708 14.9659 5.80209 13.2622Z" fill="black"/>
<path d="M14.6191 1.71336C14.2015 1.36007 13.7727 1.12207 13.338 1V6.47721C14.6792 6.43987 15.9766 6.2928 17.1862 6.04692C16.9642 5.36849 16.7062 4.73126 16.4135 4.14585C15.8876 3.09414 15.2838 2.27569 14.6191 1.71336Z" fill="black"/>
<path d="M6.79275 19.4321C5.7929 19.7129 4.87405 20.067 4.06689 20.4876C4.17526 20.605 4.28563 20.7211 4.39928 20.8348C5.71231 22.1478 7.283 23.1094 8.99735 23.6727C8.51711 23.1051 8.07299 22.4196 7.67476 21.6231C7.33777 20.9491 7.04304 20.2145 6.79275 19.4321Z" fill="black"/>
<path d="M8.89647 4.14585C8.60378 4.73126 8.34575 5.36849 8.12378 6.04692C9.33331 6.2928 10.6308 6.43987 11.9719 6.47721V1C11.5372 1.12212 11.1084 1.36007 10.6908 1.71336C10.026 2.27569 9.42237 3.09414 8.89647 4.14585Z" fill="black"/>
<path d="M19.508 13.2622C19.4629 14.9659 19.2498 16.6102 18.8844 18.1194C20.0809 18.4552 21.1756 18.8894 22.125 19.4112C23.4252 17.617 24.1818 15.4991 24.3101 13.2622H19.508Z" fill="black"/>
<path d="M18.5173 5.72585C19.5171 5.44505 20.436 5.09099 21.2431 4.6704C21.1347 4.55297 21.0244 4.43691 20.9107 4.32326C19.5977 3.01028 18.027 2.04868 16.3126 1.48535C16.7929 2.05296 17.237 2.73845 17.6352 3.53486C17.9722 4.20884 18.267 4.94355 18.5173 5.72585Z" fill="black"/>
<path d="M16.4135 21.0121C16.7062 20.4267 16.9642 19.7894 17.1862 19.1109C15.9766 18.8651 14.6792 18.718 13.338 18.6807V24.1579C13.7727 24.0358 14.2015 23.7978 14.6191 23.4445C15.2839 22.8822 15.8876 22.0638 16.4135 21.0121Z" fill="black"/>
<path d="M18.8844 7.03892C19.2498 8.5481 19.4629 10.1923 19.508 11.8961H24.3101C24.1819 9.65918 23.4252 7.54128 22.125 5.74707C21.1756 6.26887 20.0809 6.70307 18.8844 7.03892Z" fill="black"/>
<path d="M13.338 13.2622V17.3149C14.8054 17.354 16.2293 17.5183 17.5585 17.7958C17.898 16.3931 18.0971 14.8585 18.1414 13.2622H13.338Z" fill="black"/>
<path d="M11.9719 11.8959V7.84317C10.5046 7.80411 9.08063 7.63983 7.75144 7.3623C7.412 8.76498 7.21284 10.2996 7.16858 11.8959H11.9719Z" fill="black"/>
<path d="M6.79275 5.72585C7.043 4.94351 7.33777 4.20884 7.67476 3.53486C8.07299 2.73845 8.51711 2.05292 8.99735 1.48535C7.28304 2.04868 5.71231 3.01028 4.39928 4.32331C4.28563 4.43696 4.17526 4.55302 4.06689 4.67045C4.87405 5.09099 5.7929 5.44505 6.79275 5.72585Z" fill="black"/>
<path d="M18.5172 19.4321C18.267 20.2145 17.9722 20.9491 17.6352 21.6231C17.237 22.4195 16.7929 23.1051 16.3126 23.6727C18.0269 23.1094 19.5977 22.1478 20.9107 20.8348C21.0243 20.7211 21.1347 20.605 21.2431 20.4876C20.4359 20.067 19.5171 19.7129 18.5172 19.4321Z" fill="black"/>
<path d="M11.9719 13.2622H7.16858C7.21284 14.8585 7.412 16.3932 7.75144 17.7958C9.08058 17.5183 10.5046 17.354 11.9719 17.3149V13.2622Z" fill="black"/>
<path d="M10.6908 23.4445C11.1084 23.7978 11.5373 24.0358 11.9719 24.1579V18.6807C10.6308 18.718 9.33331 18.8651 8.12378 19.1109C8.34575 19.7894 8.60374 20.4267 8.89647 21.0121C9.42237 22.0638 10.026 22.8821 10.6908 23.4445Z" fill="black"/>
<circle cx="12.655" cy="12.5794" r="5.37923" fill="white"/>
<g clip-path="url(#clip0_144_205)">
<path d="M12.6551 8.09668C10.1776 8.09668 8.17236 10.1016 8.17236 12.5794C8.17236 13.3656 8.37743 14.1336 8.76683 14.8109L8.18926 16.6045C8.14897 16.7295 8.18208 16.8666 8.27496 16.9595C8.36696 17.0515 8.50369 17.0858 8.62996 17.0452L10.4236 16.4676C11.1009 16.857 11.8688 17.0621 12.6551 17.0621C15.1325 17.0621 17.1377 15.0572 17.1377 12.5794C17.1377 10.1019 15.1329 8.09668 12.6551 8.09668ZM12.6551 16.3616C11.9449 16.3616 11.2526 16.1635 10.653 15.7886C10.5668 15.7347 10.4597 15.7201 10.36 15.7522L9.06526 16.1692L9.48223 14.8744C9.51383 14.7762 9.50049 14.6689 9.44577 14.5814C9.07094 13.9819 8.87278 13.2896 8.87278 12.5794C8.87278 10.4938 10.5695 8.7971 12.6551 8.7971C14.7406 8.7971 16.4373 10.4938 16.4373 12.5794C16.4373 14.6649 14.7406 16.3616 12.6551 16.3616ZM13.0928 12.5794C13.0928 12.8211 12.8968 13.0171 12.6551 13.0171C12.4133 13.0171 12.2173 12.8211 12.2173 12.5794C12.2173 12.3376 12.4133 12.1416 12.6551 12.1416C12.8968 12.1416 13.0928 12.3376 13.0928 12.5794ZM14.8439 12.5794C14.8439 12.8211 14.6479 13.0171 14.4061 13.0171C14.1643 13.0171 13.9683 12.8211 13.9683 12.5794C13.9683 12.3376 14.1643 12.1416 14.4061 12.1416C14.6479 12.1416 14.8439 12.3376 14.8439 12.5794ZM11.3418 12.5794C11.3418 12.8211 11.1458 13.0171 10.904 13.0171C10.6623 13.0171 10.4662 12.8211 10.4662 12.5794C10.4662 12.3376 10.6623 12.1416 10.904 12.1416C11.1458 12.1416 11.3418 12.3376 11.3418 12.5794Z" fill="black"/>
</g>
<defs>
<clipPath id="clip0_144_205">
<rect width="8.96538" height="8.96538" fill="white" transform="translate(8.17236 8.09668)"/>
</clipPath>
</defs>
</svg>
