<svg width="24" height="24" viewBox="0 0 24 24" fill="none" xmlns="http://www.w3.org/2000/svg">
<path fill-rule="evenodd" clip-rule="evenodd" d="M19.9138 3.38752C17.7225 1.2042 14.8083 0.00128045 11.7037 0C5.30642 0 0.099927 5.18144 0.0973537 11.5499C0.096496 13.5856 0.630869 15.5729 1.64658 17.3246L0 23.31L6.15273 21.7037C7.84805 22.6241 9.75667 23.1091 11.699 23.1097H11.7039C18.1005 23.1097 23.3076 17.9278 23.31 11.5591C23.3113 8.47264 22.1052 5.5707 19.9138 3.38752ZM11.7037 21.159H11.6997C9.96882 21.1583 8.27121 20.6953 6.78989 19.8208L6.43778 19.6126L2.78666 20.5658L3.7612 17.0231L3.53175 16.6599C2.56608 15.1313 2.05615 13.3646 2.05701 11.5506C2.05901 6.25731 6.3866 1.95085 11.7076 1.95085C14.2843 1.9517 16.7064 2.95159 18.5277 4.76629C20.3489 6.58098 21.3513 8.99307 21.3505 11.5584C21.3482 16.8521 17.0209 21.159 11.7037 21.159ZM16.9952 13.9686C16.7052 13.8241 15.2794 13.1261 15.0135 13.0296C14.7479 12.9333 14.5543 12.8854 14.3612 13.1742C14.1678 13.463 13.6121 14.1132 13.4428 14.3057C13.2736 14.4983 13.1046 14.5225 12.8145 14.378C12.5245 14.2336 11.5901 13.9287 10.4823 12.9454C9.62029 12.1801 9.03831 11.235 8.86905 10.9462C8.70008 10.6571 8.86762 10.516 8.99628 10.3572C9.31022 9.96921 9.62458 9.56245 9.72122 9.36995C9.818 9.17732 9.76954 9.00872 9.69692 8.86432C9.62458 8.71991 9.0446 7.29931 8.80301 6.72126C8.56741 6.15871 8.32853 6.23468 8.15041 6.22586C7.98143 6.21747 7.78801 6.21576 7.59459 6.21576C7.40131 6.21576 7.08709 6.28789 6.82119 6.57699C6.55544 6.86595 5.80634 7.56408 5.80634 8.98468C5.80634 10.4053 6.8455 11.7776 6.99045 11.9703C7.13541 12.1629 9.03545 15.0781 11.9445 16.3281C12.6364 16.6257 13.1765 16.8031 13.5978 16.9362C14.2926 17.1558 14.9246 17.1248 15.4243 17.0506C15.9816 16.9676 17.14 16.3523 17.3819 15.6782C17.6235 15.004 17.6235 14.4262 17.5508 14.3057C17.4785 14.1853 17.2851 14.1132 16.9952 13.9686Z" fill="black"/>
</svg>
